<?xml version="1.0"?><svg data-name="014_MAPS" id="_014_MAPS" viewBox="0 0 24 24" xmlns="http://www.w3.org/2000/svg"><defs><style>.cls-1{fill:#E69DB8;}</style></defs><path class="cls-1" d="M12,23c-4.47,0-9-1.37-9-4,0-.83.46-2,2.65-2.92l.92-.39.78,1.85-.93.38C5.39,18.36,5,18.81,5,19c0,.58,2.45,2,7,2s7-1.42,7-2c0-.19-.39-.64-1.42-1.08l-.93-.38.78-1.85.92.39C20.54,17,21,18.17,21,19,21,21.63,16.47,23,12,23Z"/><path class="cls-1" d="M12,19.41l-.71-.7c-.24-.24-5.89-6-5.89-11.11a6.6,6.6,0,0,1,13.2,0c0,5.15-5.65,10.87-5.89,11.11ZM12,3A4.6,4.6,0,0,0,7.4,7.6c0,3.35,3.15,7.3,4.6,8.93C13.45,14.9,16.6,11,16.6,7.6A4.6,4.6,0,0,0,12,3Z"/><circle class="cls-1" cx="12" cy="7.5" r="1.5"/></svg>